<svg width="40" height="48" viewBox="0 0 40 48" fill="none" xmlns="http://www.w3.org/2000/svg">
<path d="M20.1325 2.44129e-05C19.8325 -0.00185059 19.5333 0.104282 19.2927 0.317407L15.7014 3.52053L11.0041 2.47805C10.3754 2.3443 9.74662 2.69569 9.54662 3.30569L8.03783 7.876L3.45043 9.32619C2.83918 9.51869 2.47082 10.144 2.60082 10.7715L3.57982 15.4834L0.327871 19.0308C-0.105879 19.5045 -0.109395 20.228 0.318105 20.708L3.52123 24.2993L2.47875 28.9966C2.34 29.6241 2.69763 30.2541 3.30638 30.4541L7.87669 31.9629L9.32201 36.5527C9.51576 37.164 10.1435 37.5273 10.7698 37.4023L15.4817 36.4209L19.029 39.6729C19.2703 39.8891 19.5737 40 19.8762 40C20.1737 40 20.4712 39.8939 20.7087 39.6826L24.2976 36.4795L28.9973 37.522C29.6235 37.6557 30.2548 37.3019 30.4548 36.6919L31.9612 32.1216L36.551 30.6763C37.1622 30.4838 37.5306 29.8585 37.4006 29.231L36.4216 24.5166L39.6736 20.9693C40.1061 20.4943 40.1108 19.7708 39.6833 19.292L36.4802 15.7031L37.5227 11.0034C37.6614 10.3759 37.3013 9.74592 36.6926 9.54592L32.1223 8.03957L30.6745 3.44973C30.4808 2.83848 29.8567 2.47762 29.2292 2.60012L24.5173 3.57912L20.9699 0.327173C20.7331 0.110298 20.4325 0.00189941 20.1325 2.44129e-05ZM20.0007 6.25002C27.582 6.25002 33.7507 12.4188 33.7507 20C33.7507 27.5813 27.582 33.75 20.0007 33.75C12.4195 33.75 6.25072 27.5813 6.25072 20C6.25072 12.4188 12.4195 6.25002 20.0007 6.25002ZM20.0007 8.75002C13.797 8.75002 8.75072 13.7963 8.75072 20C8.75072 26.2038 13.797 31.25 20.0007 31.25C26.2045 31.25 31.2507 26.2038 31.2507 20C31.2507 13.7963 26.2045 8.75002 20.0007 8.75002Z" fill="#C99E54"/>
<path d="M14.5 38.5L12.5 39C12.3098 39.0181 11.4129 39.1917 11.2188 39.1917V40.1307V43.2476V46.3646C11.2188 46.5258 11.394 46.6753 11.6818 46.7603C11.9686 46.8453 12.3273 46.8514 12.6307 46.7803H19.9992H27.3678C27.5053 46.8133 27.6548 46.8293 27.8041 46.8293C27.9826 46.8293 28.1606 46.8063 28.3167 46.7603C28.6045 46.6753 28.7797 46.5258 28.7797 46.3646V43.2458V40.1271V39.0331C28.5729 39.0331 27.7166 39.0218 27.5 39L25 38.5L21.9505 41.3659C21.4129 41.5931 20.7163 42.0488 19.9992 42.0488C19.2666 42.0488 18.5914 41.6024 18.048 41.3659L14.5 38.5Z" fill="#C99E54"/>
<path d="M18 26V16.112L19.616 17.648H16.08V14.8H21.776V26H18Z" fill="white"/>
</svg>
